<svg width="96" height="96" viewBox="0 0 96 96" fill="none" xmlns="http://www.w3.org/2000/svg">
<circle cx="48" cy="48" r="48" fill="#333333"/>
<mask id="mask0_4676_86616" style="mask-type:alpha" maskUnits="userSpaceOnUse" x="24" y="24" width="48" height="48">
<path d="M62.7025 33V45.9799C57.9559 47.202 52.9797 47.8512 47.8512 47.8512C42.7228 47.8512 37.7466 47.201 33 45.9799V33C37.7466 34.221 42.7228 34.8713 47.8512 34.8713C52.9797 34.8713 57.9559 34.222 62.7025 33Z" fill="#F8F6D7"/>
<path d="M33 62.9997V50.0197C37.7466 48.7977 42.7228 48.1484 47.8512 48.1484C52.9797 48.1484 57.9559 48.7987 62.7025 50.0197V62.9997C57.9559 61.7786 52.9797 61.1284 47.8512 61.1284C42.7228 61.1284 37.7466 61.7777 33 62.9997Z" fill="#F8F6D7"/>
</mask>
<g mask="url(#mask0_4676_86616)">
<rect x="24" y="24" width="48" height="48" fill="white"/>
</g>
</svg>
