<svg xmlns="http://www.w3.org/2000/svg" width="96" height="96" viewBox="0 0 96 96" fill="none">
<path d="M33.4634 6V33.9284L19.5 47.8918V19.9634L33.4634 6Z" fill="#ADADAD"/>
<path d="M75.3552 61.855C75.3837 65.5407 74.6825 69.1956 73.2918 72.609C71.9011 76.0224 69.8485 79.1267 67.2523 81.7431C64.6562 84.3594 61.5678 86.436 58.1653 87.8531C54.7628 89.2702 51.1134 89.9998 47.4276 89.9998C43.7418 89.9998 40.0924 89.2702 36.6899 87.8531C33.2874 86.436 30.199 84.3594 27.6029 81.7431C25.0067 79.1267 22.9541 76.0224 21.5634 72.609C20.1727 69.1956 19.4714 65.5407 19.5 61.855V47.8916H33.4634V61.855C33.4431 63.7017 33.7894 65.534 34.4821 67.246C35.1748 68.9579 36.2002 70.5155 37.4989 71.8285C38.7976 73.1415 40.3438 74.1839 42.0481 74.8953C43.7524 75.6067 45.5808 75.973 47.4276 75.973C49.2744 75.973 51.1028 75.6067 52.8071 74.8953C54.5114 74.1839 56.0576 73.1415 57.3563 71.8285C58.655 70.5155 59.6804 68.9579 60.3731 67.246C61.0658 65.534 61.412 63.7017 61.3918 61.855H75.3552Z" fill="#ADADAD"/>
<path d="M75.3552 33.9287L61.3918 47.8921H19.5L33.4634 33.9287H75.3552Z" fill="#ADADAD"/>
</svg>