<svg width="24" height="24" viewBox="0 0 24 24" fill="none" xmlns="http://www.w3.org/2000/svg">
<path d="M12 5.5C13.5273 5.49906 15.0056 6.03877 16.173 7.0235L19.443 3.9095C18.1877 2.75205 16.68 1.9031 15.0393 1.43003C13.3987 0.956964 11.6704 0.872801 9.99162 1.18422C8.31281 1.49564 6.72968 2.19407 5.36789 3.22409C4.0061 4.2541 2.90312 5.58734 2.1465 7.118L5.833 9.9595C6.26293 8.66304 7.08988 7.53472 8.1967 6.73435C9.30352 5.93398 10.6341 5.50214 12 5.5Z" fill="#D94F3D"/>
<path d="M5.5 12C5.50092 11.3064 5.61336 10.6174 5.833 9.9595L2.1465 7.118C1.39243 8.63495 1 10.306 1 12C1 13.694 1.39243 15.365 2.1465 16.882L5.833 14.0405C5.61336 13.3826 5.50092 12.6936 5.5 12Z" fill="#F2C042"/>
<path d="M22.55 10H12.05V14.5H18C17.6461 15.7724 16.8351 16.8694 15.7225 17.581L19.3805 20.401C21.718 18.303 23.0915 14.8915 22.55 10Z" fill="#5085ED"/>
<path d="M15.721 17.581C14.5905 18.228 13.3017 18.5463 12 18.5C10.6341 18.4979 9.30352 18.066 8.1967 17.2656C7.08988 16.4653 6.26293 15.337 5.833 14.0405L2.1465 16.882C3.05707 18.7175 4.46172 20.2626 6.20247 21.3434C7.94322 22.4243 9.95101 22.998 12 23C14.6962 23.0732 17.3243 22.1472 19.379 20.4L15.721 17.581Z" fill="#57A75C"/>
</svg>
