<svg width="40" height="40" viewBox="0 0 40 40" fill="none" xmlns="http://www.w3.org/2000/svg">
<path fill-rule="evenodd" clip-rule="evenodd" d="M16.6666 18.6187V21.3812L18.6265 23.3333H21.3734L23.3333 21.3812V18.6187L21.3734 16.6666H18.6265L16.6666 18.6187ZM17.2496 13.3333L13.3333 17.2341V22.7658L17.2496 26.6666H22.7502L26.6666 22.7658V17.2341L22.7502 13.3333H17.2496Z" fill="#0A0A0A"/>
<path d="M9.2332 26.1167L7.2832 28.0667V30.8334L9.2332 32.7834H11.9999L13.9499 30.8334V28.0667L11.9999 26.1167H9.2332Z" fill="#0A0A0A"/>
<path d="M5.28325 16.6167L3.33325 18.5667V21.3334L5.28325 23.2834H8.04992L9.99992 21.3334V18.5667L8.04992 16.6167H5.28325Z" fill="#0A0A0A"/>
<path d="M9.2332 7.2666L7.2832 9.2166V11.9833L9.2332 13.9333H11.9999L13.9499 11.9833V9.2166L11.9999 7.2666H9.2332Z" fill="#0A0A0A"/>
<path d="M34.7167 23.2834L36.6667 21.3334V18.5667L34.7167 16.6167H31.95L30 18.5667V21.3334L31.95 23.2834H34.7167Z" fill="#0A0A0A"/>
<path d="M30.85 32.7834L32.8 30.8334V28.0667L30.85 26.1167H28.0833L26.1333 28.0667V30.8334L28.0833 32.7834H30.85Z" fill="#0A0A0A"/>
<path d="M21.3334 36.6667L23.2834 34.7167V31.95L21.3334 30H18.5667L16.6167 31.95V34.7167L18.5667 36.6667H21.3334Z" fill="#0A0A0A"/>
<path d="M21.3334 9.99992L23.2834 8.04992V5.28325L21.3334 3.33325H18.5667L16.6167 5.28325V8.04992L18.5667 9.99992H21.3334Z" fill="#0A0A0A"/>
</svg>
