<svg width="24" height="24" viewBox="0 0 24 24" fill="none" xmlns="http://www.w3.org/2000/svg">
<path fill-rule="evenodd" clip-rule="evenodd" d="M10 11.1713V12.8287L11.1759 14H12.8241L14 12.8287V11.1713L12.8241 10H11.1759L10 11.1713ZM10.3498 8L8 10.3405V13.6595L10.3498 16H13.6502L16 13.6595V10.3405L13.6502 8H10.3498Z" fill="white"/>
<path d="M5.54 15.6699L4.37 16.8399V18.4999L5.54 19.6699H7.2L8.37 18.4999V16.8399L7.2 15.6699H5.54Z" fill="white"/>
<path d="M3.17 9.97021L2 11.1402V12.8002L3.17 13.9702H4.83L6 12.8002V11.1402L4.83 9.97021H3.17Z" fill="white"/>
<path d="M5.54 4.35986L4.37 5.52986V7.18986L5.54 8.35986H7.2L8.37 7.18986V5.52986L7.2 4.35986H5.54Z" fill="white"/>
<path d="M20.83 13.9702L22 12.8002V11.1402L20.83 9.97021H19.17L18 11.1402V12.8002L19.17 13.9702H20.83Z" fill="white"/>
<path d="M18.51 19.6699L19.68 18.4999V16.8399L18.51 15.6699H16.85L15.68 16.8399V18.4999L16.85 19.6699H18.51Z" fill="white"/>
<path d="M12.8 22L13.97 20.83V19.17L12.8 18H11.14L9.96997 19.17V20.83L11.14 22H12.8Z" fill="white"/>
<path d="M12.8 6L13.97 4.83V3.17L12.8 2H11.14L9.96997 3.17V4.83L11.14 6H12.8Z" fill="white"/>
</svg>
