<svg width="200" height="200" viewBox="0 0 200 200" fill="none" xmlns="http://www.w3.org/2000/svg">
<g opacity="0.05">
<path fill-rule="evenodd" clip-rule="evenodd" d="M93.5994 20.4181L153.279 -39.3593C153.659 -39.7394 154.17 -39.9457 154.702 -39.9457L210.168 -40C212.394 -40 214.186 -38.2083 214.197 -35.9823L214.24 19.4842C214.24 20.0163 214.034 20.5267 213.654 20.9067L153.974 80.6841L153.931 31.4614C153.931 25.3371 148.957 20.3746 142.833 20.3746L93.6103 20.4181H93.5994Z" fill="white"/>
<path fill-rule="evenodd" clip-rule="evenodd" d="M93.6971 141.048L153.963 80.6841L210.255 80.6406C212.481 80.6406 214.273 82.4323 214.283 84.6584L214.327 140.125C214.327 140.657 214.121 141.167 213.741 141.547L155.777 199.609C155.147 200.239 154.061 199.794 154.061 198.903L154.017 152.102C154.017 145.978 149.044 141.015 142.92 141.015L93.6971 141.059V141.048Z" fill="white"/>
<path d="M33.9197 80.1959L93.5994 20.4185L93.6971 141.048L35.1467 199.696C34.5169 200.326 33.431 199.881 33.431 198.991L33.3333 81.6183C33.3333 81.0863 33.5396 80.5759 33.9197 80.1959Z" fill="white"/>
</g>
</svg>
