<svg width="200" height="200" viewBox="0 0 200 200" fill="none" xmlns="http://www.w3.org/2000/svg">
<g opacity="0.03">
<path fill-rule="evenodd" clip-rule="evenodd" d="M90.2661 20.4181L149.946 -39.3593C150.326 -39.7394 150.836 -39.9457 151.368 -39.9457L206.835 -40C209.061 -40 210.852 -38.2083 210.863 -35.9823L210.907 19.4842C210.907 20.0163 210.7 20.5267 210.32 20.9067L150.641 80.6841L150.597 31.4614C150.597 25.3371 145.624 20.3746 139.5 20.3746L90.277 20.4181H90.2661Z" fill="black"/>
<path fill-rule="evenodd" clip-rule="evenodd" d="M90.3638 141.048L150.63 80.6841L206.922 80.6406C209.148 80.6406 210.939 82.4323 210.95 84.6584L210.994 140.125C210.994 140.657 210.787 141.167 210.407 141.547L152.443 199.609C151.813 200.239 150.728 199.794 150.728 198.903L150.684 152.102C150.684 145.978 145.711 141.015 139.586 141.015L90.3638 141.059V141.048Z" fill="black"/>
<path d="M30.5864 80.1959L90.266 20.4185L90.3638 141.048L31.8134 199.696C31.1836 200.326 30.0977 199.881 30.0977 198.991L30 81.6183C30 81.0863 30.2063 80.5759 30.5864 80.1959Z" fill="black"/>
</g>
</svg>
