<svg width="64" height="64" viewBox="0 0 64 64" fill="none" xmlns="http://www.w3.org/2000/svg">
  <g clip-path="url(#clip0_606_6085)">
    <path
      d="M8 27.7777C8 19.2508 8 14.9874 9.00671 13.5531C10.0134 12.1188 14.0222 10.7465 22.0398 8.00209L23.5673 7.47922C27.7466 6.04862 29.8363 5.33331 32 5.33331C34.1637 5.33331 36.2534 6.04862 40.4327 7.47923L41.9602 8.00209C49.9778 10.7465 53.9866 12.1188 54.9933 13.5531C56 14.9874 56 19.2508 56 27.7777C56 29.0657 56 30.4624 56 31.9769C56 47.0118 44.6961 54.308 37.6038 57.4061C35.68 58.2465 34.718 58.6666 32 58.6666C29.282 58.6666 28.32 58.2464 26.3962 57.406C19.3039 54.3079 8 47.0118 8 31.9769C8 30.4624 8 29.0657 8 27.7777Z"
      stroke="#00E8B5" stroke-width="3" />
    <path d="M8 29.3333L32 21.3333L56 29.3333" stroke="#00E8B5" stroke-width="3" />
    <path d="M32 5.33331V57.3333" stroke="#00E8B5" stroke-width="3" />
  </g>
  <defs>
    <clipPath id="clip0_606_6085">
      <rect width="64" height="64" fill="white" />
    </clipPath>
  </defs>
</svg>