<svg width="320" height="232" viewBox="0 0 320 232" fill="none" xmlns="http://www.w3.org/2000/svg">
<path d="M80.3747 109.378C81.4094 107.466 82.8207 105.976 84.6084 104.912C86.3962 103.848 88.3711 103.318 90.5353 103.316C92.4876 103.316 94.1942 103.695 95.6528 104.454C97.1114 105.216 98.2747 106.163 99.1494 107.299V103.713L104.33 103.708L104.35 128.414L99.1674 128.419V124.742C98.2927 125.91 97.1091 126.881 95.6055 127.659C94.104 128.439 92.3907 128.829 90.4654 128.829C88.3305 128.829 86.3782 128.288 84.6039 127.197C82.8297 126.108 81.4252 124.584 80.3859 122.627C79.3467 120.67 78.8259 118.452 78.8236 115.97C78.8214 113.488 79.3399 111.292 80.3747 109.378ZM98.0943 111.605C97.3864 110.35 96.4621 109.396 95.3191 108.736C94.1762 108.079 92.943 107.75 91.6219 107.75C90.2986 107.75 89.0677 108.075 87.9269 108.717C86.7862 109.36 85.8619 110.302 85.1563 111.545C84.4506 112.787 84.0989 114.259 84.1012 115.961C84.1012 117.665 84.4574 119.16 85.1653 120.443C85.8709 121.728 86.8065 122.706 87.9608 123.378C89.1195 124.05 90.3437 124.383 91.6354 124.383C92.9272 124.383 94.1897 124.054 95.3304 123.396C96.4712 122.738 97.3955 121.773 98.1011 120.501C98.8045 119.232 99.1584 117.742 99.1561 116.038C99.1561 114.333 98.8 112.854 98.0921 111.599H98.0943V111.605Z" fill="white"/>
<path d="M141.832 104.481C143.352 105.286 144.544 106.481 145.414 108.066C146.282 109.648 146.722 111.562 146.722 113.803L146.733 128.371L141.74 128.376L141.728 114.57C141.728 112.36 141.181 110.663 140.09 109.484C138.998 108.305 137.51 107.716 135.624 107.716C133.737 107.716 132.242 108.309 131.139 109.491C130.035 110.674 129.485 112.367 129.487 114.581L129.498 128.387L124.505 128.392L124.493 114.586C124.493 112.376 123.946 110.679 122.855 109.5C121.763 108.321 120.275 107.732 118.389 107.732C116.502 107.732 115.007 108.325 113.905 109.506C112.8 110.69 112.25 112.383 112.252 114.597L112.263 128.403L107.225 128.407L107.204 103.708L112.243 103.704V106.528C113.068 105.512 114.114 104.718 115.381 104.15C116.646 103.582 118.003 103.295 119.446 103.295C121.391 103.295 123.127 103.713 124.663 104.547C126.193 105.381 127.375 106.591 128.202 108.174C129.052 106.445 130.452 105.126 132.413 104.215C133.843 103.55 135.427 103.248 137.005 103.286C138.791 103.327 140.401 103.728 141.832 104.488V104.481Z" fill="white"/>
<path d="M158.174 104.416C159.653 103.643 161.328 103.255 163.193 103.253C165.325 103.253 167.273 103.778 169.036 104.829C170.799 105.881 172.186 107.358 173.193 109.258C174.201 111.159 174.708 113.341 174.71 115.807C174.713 118.274 174.21 120.479 173.205 122.424C172.199 124.37 170.815 125.887 169.054 126.971C167.293 128.058 165.346 128.601 163.213 128.604C161.346 128.604 159.689 128.227 158.235 127.472C156.781 126.714 155.598 125.772 154.678 124.645L154.691 139.882L149.626 139.887L149.596 103.663L154.662 103.658V107.266C155.523 106.136 156.691 105.185 158.172 104.409H158.174V104.416ZM168.509 111.427C167.81 110.194 166.892 109.261 165.754 108.623C164.613 107.985 163.389 107.667 162.086 107.667C160.783 107.667 159.604 107.996 158.465 108.652C157.324 109.306 156.407 110.257 155.715 111.508C155.018 112.757 154.673 114.227 154.673 115.92C154.673 117.613 155.023 119.09 155.722 120.355C156.418 121.617 157.338 122.573 158.476 123.225C159.617 123.876 160.826 124.201 162.097 124.201C163.371 124.201 164.622 123.865 165.763 123.195C166.903 122.526 167.819 121.554 168.513 120.273C169.207 118.997 169.555 117.512 169.555 115.819C169.555 114.126 169.205 112.663 168.506 111.432L168.509 111.427Z" fill="white"/>
<path d="M201.272 117.882L182.132 117.897C182.283 119.87 183.027 121.453 184.364 122.65C185.698 123.844 187.335 124.442 189.276 124.44C192.065 124.437 194.033 123.283 195.183 120.984L200.774 120.979C200.018 123.252 198.648 125.114 196.664 126.566C194.68 128.017 192.216 128.743 189.276 128.748C186.882 128.748 184.736 128.222 182.84 127.161C180.946 126.101 179.456 124.606 178.381 122.681C177.303 120.756 176.764 118.52 176.762 115.979C176.762 113.438 177.283 111.204 178.327 109.274C179.37 107.344 180.84 105.856 182.734 104.808C184.628 103.76 186.801 103.237 189.258 103.235C191.914 103.235 194.051 103.825 196.024 105.009C197.011 105.602 197.908 106.35 198.65 107.229C200.514 109.439 201.45 112.158 201.452 115.375C201.452 116.301 201.391 117.138 201.272 117.886H201.267L201.272 117.882ZM196.039 113.758C196.008 111.876 195.323 110.365 193.988 109.231C192.653 108.097 191.001 107.529 189.031 107.532C187.243 107.532 185.712 108.095 184.441 109.216C183.167 110.338 182.412 111.855 182.173 113.769L196.039 113.758Z" fill="white"/>
<path d="M78.4765 108.661L71.1113 108.67L71.1294 128.421H66.1899L66.1719 108.535V106.001C66.1719 104.747 67.1886 103.731 68.4421 103.731H68.8952L78.4765 103.722V108.661Z" fill="white"/>
<path d="M216 108.661L208.635 108.67L208.653 128.421H203.713L203.695 108.535V106.001C203.695 104.747 204.712 103.731 205.966 103.731H206.419L216 103.722V108.661Z" fill="white"/>
<path fill-rule="evenodd" clip-rule="evenodd" d="M28.512 103.544L40.9022 91.133C40.9811 91.0541 41.0871 91.0113 41.1975 91.0113L52.7131 91C53.1752 91 53.5472 91.372 53.5495 91.8341L53.5585 103.35C53.5585 103.46 53.5156 103.566 53.4367 103.645L41.0465 116.056L41.0375 105.836C41.0375 104.565 40.005 103.535 38.7335 103.535L28.5142 103.544H28.512Z" fill="white"/>
<path fill-rule="evenodd" clip-rule="evenodd" d="M28.5323 128.588L41.0443 116.056L52.7311 116.047C53.1933 116.047 53.5653 116.419 53.5675 116.881L53.5765 128.396C53.5765 128.507 53.5337 128.613 53.4548 128.692L41.4207 140.746C41.29 140.877 41.0646 140.784 41.0646 140.599L41.0555 130.883C41.0555 129.611 40.023 128.581 38.7515 128.581L28.5323 128.59V128.588Z" fill="white"/>
<path d="M16.1217 115.954L28.512 103.543L28.5323 128.588L16.3765 140.764C16.2457 140.895 16.0203 140.802 16.0203 140.617L16 116.249C16 116.139 16.0428 116.033 16.1217 115.954Z" fill="white"/>
<path fill-rule="evenodd" clip-rule="evenodd" d="M260.08 98.1254L277.984 80.1922C278.098 80.0782 278.251 80.0163 278.41 80.0163L295.05 80C295.718 80 296.256 80.5375 296.259 81.2053L296.272 97.8453C296.272 98.0049 296.21 98.158 296.096 98.272L278.192 116.205L278.179 101.438C278.179 99.6011 276.687 98.1124 274.85 98.1124L260.083 98.1254H260.08Z" fill="white"/>
<path fill-rule="evenodd" clip-rule="evenodd" d="M260.109 134.314L278.189 116.205L295.076 116.192C295.744 116.192 296.282 116.73 296.285 117.397L296.298 134.037C296.298 134.197 296.236 134.35 296.122 134.464L278.733 151.883C278.544 152.072 278.218 151.938 278.218 151.671L278.205 137.631C278.205 135.793 276.713 134.305 274.876 134.305L260.109 134.318V134.314Z" fill="white"/>
<path d="M242.176 116.059L260.08 98.1255L260.109 134.314L242.544 151.909C242.355 152.098 242.029 151.964 242.029 151.697L242 116.485C242 116.326 242.062 116.173 242.176 116.059Z" fill="white"/>
<rect x="0.5" y="0.5" width="319" height="231" rx="4.5" stroke="#9747FF" stroke-dasharray="10 5"/>
</svg>
