<svg width="200" height="200" viewBox="0 0 200 200" fill="none" xmlns="http://www.w3.org/2000/svg">
<path d="M64.3747 93.378C65.4094 91.4663 66.8207 89.9761 68.6084 88.912C70.3962 87.848 72.3711 87.3182 74.5353 87.3159C76.4876 87.3159 78.1942 87.6947 79.6528 88.4544C81.1114 89.2164 82.2747 90.1632 83.1494 91.2995V87.7127L88.33 87.7082L88.3503 112.414L83.1674 112.419V108.742C82.2927 109.91 81.1091 110.881 79.6055 111.659C78.104 112.439 76.3907 112.829 74.4654 112.829C72.3305 112.829 70.3782 112.288 68.6039 111.197C66.8297 110.108 65.4252 108.584 64.3859 106.627C63.3467 104.67 62.8259 102.452 62.8236 99.9699C62.8214 97.4878 63.3399 95.292 64.3747 93.378ZM82.0943 95.6054C81.3864 94.3497 80.4621 93.3961 79.3191 92.7355C78.1762 92.0795 76.943 91.7503 75.6219 91.7503C74.2986 91.7503 73.0677 92.075 71.9269 92.7175C70.7862 93.36 69.8619 94.3023 69.1563 95.5445C68.4506 96.7867 68.0989 98.2588 68.1012 99.9609C68.1012 101.665 68.4574 103.16 69.1653 104.443C69.8709 105.728 70.8065 106.706 71.9608 107.378C73.1195 108.05 74.3437 108.383 75.6354 108.383C76.9272 108.383 78.1897 108.054 79.3304 107.396C80.4712 106.738 81.3955 105.773 82.1011 104.501C82.8045 103.232 83.1584 101.742 83.1561 100.038C83.1561 98.3332 82.8 96.8543 82.0921 95.5986H82.0943V95.6054Z" fill="black"/>
<path d="M125.832 88.4813C127.352 89.2861 128.544 90.4809 129.414 92.0658C130.282 93.6484 130.722 95.5624 130.722 97.8033L130.733 112.371L125.74 112.376L125.728 98.5698C125.728 96.3604 125.181 94.6629 124.09 93.4838C122.998 92.3048 121.51 91.7164 119.624 91.7164C117.737 91.7164 116.242 92.3093 115.139 93.4906C114.035 94.6741 113.485 96.3672 113.487 98.581L113.498 112.387L108.505 112.392L108.493 98.5855C108.493 96.3762 107.946 94.6786 106.855 93.4996C105.763 92.3205 104.275 91.7321 102.389 91.7321C100.502 91.7321 99.0069 92.325 97.9045 93.5064C96.7999 94.6899 96.2498 96.383 96.252 98.5968L96.2633 112.403L91.2247 112.407L91.2044 87.708L96.243 87.7035V90.5283C97.0681 89.5115 98.1142 88.718 99.3812 88.1499C100.646 87.5818 102.003 87.2955 103.446 87.2955C105.391 87.2955 107.127 87.7125 108.663 88.5467C110.193 89.3808 111.375 90.5914 112.202 92.174C113.052 90.4449 114.452 89.126 116.413 88.2153C117.843 87.5502 119.427 87.2481 121.005 87.2864C122.791 87.327 124.401 87.7283 125.832 88.488V88.4813Z" fill="black"/>
<path d="M142.174 88.416C143.653 87.6427 145.328 87.2549 147.193 87.2527C149.325 87.2527 151.273 87.778 153.036 88.8285C154.799 89.8813 156.186 91.358 157.193 93.2584C158.201 95.1589 158.708 97.3412 158.71 99.8075C158.713 102.274 158.21 104.479 157.205 106.424C156.199 108.37 154.815 109.887 153.054 110.971C151.293 112.058 149.346 112.601 147.213 112.604C145.346 112.604 143.689 112.227 142.235 111.472C140.781 110.714 139.598 109.772 138.678 108.645L138.691 123.882L133.626 123.887L133.596 87.663L138.662 87.6585V91.2655C139.523 90.1361 140.691 89.1847 142.172 88.4092H142.174V88.416ZM152.509 95.4272C151.81 94.194 150.892 93.2607 149.754 92.6227C148.613 91.9847 147.389 91.6668 146.086 91.6668C144.783 91.6668 143.604 91.996 142.465 92.652C141.324 93.3058 140.407 94.2571 139.715 95.5083C139.018 96.7573 138.673 98.2272 138.673 99.9202C138.673 101.613 139.023 103.09 139.722 104.355C140.418 105.617 141.338 106.573 142.476 107.225C143.617 107.876 144.826 108.201 146.097 108.201C147.371 108.201 148.622 107.865 149.763 107.195C150.903 106.526 151.819 105.554 152.513 104.273C153.207 102.997 153.555 101.512 153.555 99.8188C153.555 98.1257 153.205 96.6626 152.506 95.4317L152.509 95.4272Z" fill="black"/>
<path d="M185.272 101.882L166.132 101.897C166.283 103.87 167.027 105.453 168.364 106.65C169.698 107.844 171.335 108.442 173.276 108.44C176.065 108.437 178.033 107.283 179.183 104.984L184.774 104.979C184.018 107.252 182.648 109.114 180.664 110.566C178.68 112.017 176.216 112.743 173.276 112.748C170.882 112.748 168.736 112.222 166.84 111.161C164.946 110.101 163.456 108.606 162.381 106.681C161.303 104.756 160.764 102.52 160.762 99.9788C160.762 97.4381 161.283 95.204 162.327 93.2742C163.37 91.3444 164.84 89.8565 166.734 88.8082C168.628 87.7599 170.801 87.2369 173.258 87.2346C175.914 87.2346 178.051 87.8253 180.024 89.0088C181.011 89.6017 181.908 90.3502 182.65 91.2294C184.514 93.4388 185.45 96.1576 185.452 99.3746C185.452 100.301 185.391 101.138 185.272 101.886H185.267L185.272 101.882ZM180.039 97.7582C180.008 95.8758 179.323 94.3653 177.988 93.2314C176.653 92.0974 175.001 91.5293 173.031 91.5315C171.243 91.5315 169.712 92.0951 168.441 93.2156C167.167 94.3383 166.412 95.8555 166.173 97.7695L180.039 97.7582Z" fill="black"/>
<path d="M62.4765 92.6611L55.1113 92.6701L55.1294 112.421H50.1899L50.1719 92.5348V90.0009C50.1719 88.7474 51.1886 87.7307 52.4421 87.7307H52.8952L62.4765 87.7217V92.6611Z" fill="black"/>
<path d="M200 92.6611L192.635 92.6701L192.653 112.421H187.713L187.695 92.5348V90.0009C187.695 88.7474 188.712 87.7307 189.966 87.7307H190.419L200 87.7217V92.6611Z" fill="black"/>
<path fill-rule="evenodd" clip-rule="evenodd" d="M12.512 87.5435L24.9022 75.133C24.9811 75.0541 25.0871 75.0113 25.1975 75.0113L36.7131 75C37.1752 75 37.5472 75.372 37.5495 75.8341L37.5585 87.3497C37.5585 87.4601 37.5156 87.5661 37.4367 87.645L25.0465 100.056L25.0375 89.8363C25.0375 88.5648 24.005 87.5345 22.7335 87.5345L12.5142 87.5435H12.512Z" fill="black"/>
<path fill-rule="evenodd" clip-rule="evenodd" d="M12.5323 112.588L25.0443 100.056L36.7311 100.047C37.1933 100.047 37.5653 100.419 37.5675 100.881L37.5765 112.396C37.5765 112.507 37.5337 112.613 37.4548 112.692L25.4207 124.746C25.29 124.877 25.0646 124.784 25.0646 124.599L25.0555 114.883C25.0555 113.611 24.023 112.581 22.7515 112.581L12.5323 112.59V112.588Z" fill="black"/>
<path d="M0.121738 99.954L12.512 87.5435L12.5323 112.588L0.376486 124.764C0.245731 124.895 0.0202897 124.802 0.0202897 124.617L0 100.249C0 100.139 0.0428338 100.033 0.121738 99.954Z" fill="black"/>
</svg>
