<svg width="24" height="24" viewBox="0 0 24 24" fill="none" xmlns="http://www.w3.org/2000/svg">
<path d="M21.499 17.6133C20.9795 18.7638 20.7315 19.2773 20.0625 20.2938C19.1305 21.7133 17.8155 23.4813 16.186 23.4963C14.7385 23.5098 14.3665 22.5543 12.4015 22.5658C10.4365 22.5773 10.027 23.5133 8.57955 23.4998C6.95005 23.4853 5.70505 21.8888 4.77205 20.4683C2.16405 16.4983 1.89155 11.8398 3.50005 9.36328C4.64305 7.60228 6.44705 6.57328 8.14255 6.57328C9.86905 6.57328 10.9545 7.51978 12.3825 7.51978C13.7675 7.51978 14.611 6.57178 16.6075 6.57178C18.1165 6.57178 19.7155 7.39328 20.855 8.81278C17.1215 10.8583 17.7285 16.1878 21.499 17.6133Z" fill="white"/>
<path d="M15.3035 4.088C16.029 3.157 16.579 1.8435 16.379 0.5C15.194 0.581 13.809 1.335 13 2.3175C12.2655 3.209 11.659 4.5315 11.895 5.817C13.1875 5.8575 14.526 5.085 15.3035 4.088Z" fill="white"/>
</svg>
