<svg width="20" height="24" viewBox="0 0 20 24" fill="none" xmlns="http://www.w3.org/2000/svg">
<path d="M19.499 17.6135C18.9795 18.764 18.7315 19.2775 18.0625 20.294C17.1305 21.7135 15.8155 23.4815 14.186 23.4965C12.7385 23.51 12.3665 22.5545 10.4015 22.566C8.4365 22.5775 8.027 23.5135 6.5795 23.5C4.95 23.4855 3.705 21.889 2.772 20.4685C0.164 16.4985 -0.1085 11.84 1.5 9.36349C2.643 7.60249 4.447 6.57349 6.1425 6.57349C7.869 6.57349 8.9545 7.51999 10.3825 7.51999C11.7675 7.51999 12.611 6.57199 14.6075 6.57199C16.1165 6.57199 17.7155 7.39349 18.855 8.81299C15.1215 10.8585 15.7285 16.188 19.499 17.6135Z" fill="black"/>
<path d="M13.3035 4.088C14.029 3.157 14.579 1.8435 14.379 0.5C13.194 0.581 11.809 1.335 11 2.3175C10.2655 3.209 9.659 4.5315 9.895 5.817C11.1875 5.8575 12.526 5.085 13.3035 4.088Z" fill="black"/>
</svg>
