<svg width="96" height="96" viewBox="0 0 96 96" fill="none" xmlns="http://www.w3.org/2000/svg">
<path d="M30.74 71.9997H37.9121C40.848 72.0157 43.12 74.5877 42.8921 77.5118L41.4942 95.5595C43.6221 95.8479 45.7932 96 48 96C50.2069 96 52.378 95.8479 54.5059 95.5595L53.108 77.5118C52.8801 74.5877 55.1521 72.0157 58.0881 71.9997H65.2601C79.8 71.9997 92.4721 62.1035 96 47.9993C92.1635 51.8408 86.9572 53.9994 81.5281 53.9994H64.1467C61.4917 53.9994 58.9454 55.0541 57.0681 56.9315L50.828 63.1715C49.2681 64.7356 46.732 64.7356 45.1721 63.1715L38.9302 56.9296C37.054 55.0534 34.5094 53.9994 31.8561 53.9994H14.4856C9.05247 53.9994 3.84187 51.8411 6.04248e-06 47.9993C3.52803 62.1035 16.2 71.9997 30.74 71.9997ZM27.4224 91.372C28.2465 91.764 29.0824 92.132 29.9304 92.48C29.0824 92.1359 28.2465 91.7679 27.4224 91.372ZM23.4105 89.2239C23.6105 89.348 23.8144 89.464 24.0144 89.5839C23.7945 89.456 23.5744 89.3278 23.3584 89.196C23.3744 89.2079 23.3945 89.2159 23.4105 89.2239ZM18.7625 86.0639C18.7203 86.0315 18.6799 85.9969 18.6377 85.9643C18.6701 85.9895 18.7015 86.0147 18.7345 86.0399C18.7424 86.0479 18.7506 86.0559 18.7625 86.0639ZM17.7384 85.2479C17.7332 85.2436 17.7279 85.2391 17.7226 85.2348C18.0256 85.4807 18.3289 85.7258 18.6377 85.9643C18.5359 85.8856 18.4345 85.8067 18.3345 85.7278C18.1345 85.5678 17.9345 85.412 17.7384 85.2479ZM17.1506 84.7639C17.0623 84.6901 16.9765 84.6149 16.8896 84.5407C17.165 84.7748 17.442 85.0069 17.7226 85.2348C17.532 85.0791 17.3412 84.9235 17.1506 84.7639ZM16.5705 84.2678C16.5508 84.251 16.5312 84.2326 16.5115 84.2155C16.6369 84.3246 16.7629 84.433 16.8896 84.5407C16.7834 84.45 16.6761 84.3602 16.5705 84.2678ZM18.9144 86.1799C18.8625 86.1399 18.8105 86.0999 18.7625 86.0639C18.832 86.1182 18.9035 86.1692 18.9734 86.2231C18.9537 86.2087 18.9342 86.1942 18.9144 86.1799ZM20.7705 87.5278C20.159 87.1132 19.5621 86.676 18.9734 86.2231C19.0136 86.2526 19.0541 86.2823 19.0945 86.312C19.3465 86.5038 19.5984 86.6919 19.8545 86.8758C20.0263 87.0038 20.1984 87.1278 20.3744 87.2479C20.6185 87.4239 20.8664 87.596 21.1185 87.7639L21.4185 87.9679C21.2144 87.8358 21.0064 87.696 20.8064 87.5518C20.7945 87.5438 20.7824 87.5358 20.7705 87.5278ZM21.8705 88.264C21.7185 88.172 21.5664 88.072 21.4185 87.9679C21.4465 87.9839 21.4705 87.9999 21.4945 88.0159C21.6185 88.0999 21.7465 88.1839 21.8705 88.264ZM22.2185 88.4878C22.2744 88.5239 22.3263 88.5559 22.3824 88.5919C22.274 88.5239 22.1644 88.4579 22.0584 88.3878C22.1105 88.4198 22.1664 88.4559 22.2185 88.4878ZM32.3824 83.7238L31.6506 93.14C22.4185 89.7919 14.5064 83.6918 8.90251 75.8357C15.2984 79.7718 22.8025 81.9998 30.7384 81.9998H30.7865C31.7185 81.9998 32.4545 82.7918 32.3824 83.7238ZM87.1064 75.8398C86.7545 76.3318 86.3984 76.8157 86.0304 77.2917C81.4304 83.2518 75.4625 88.1038 68.5945 91.372C68.5945 91.3746 68.5931 91.3746 68.5904 91.372C67.7664 91.764 66.9304 92.132 66.0824 92.48H66.0785C65.5105 92.7121 64.9385 92.932 64.3625 93.14L63.6304 83.7238C63.5584 82.7918 64.2945 81.9998 65.2263 81.9998H65.2705C73.2064 81.9998 80.7105 79.7718 87.1064 75.8398ZM68.5904 91.372C67.7664 91.764 66.9304 92.132 66.0824 92.48C66.9304 92.1359 67.7664 91.7679 68.5904 91.372ZM86.0304 77.2917C81.4385 83.2559 75.4664 88.1079 68.5945 91.372C75.4625 88.1038 81.4304 83.2518 86.0304 77.2917ZM94.3506 35.4991L92.8945 36.9591C88.3904 41.4672 82.2824 43.9993 75.9105 43.9993H64.1474C61.4927 43.9993 58.8924 44.5266 56.4863 45.5231C54.081 46.5196 51.8703 47.9856 49.9945 49.8634L49.4224 50.4353C49.0308 50.8267 48.5176 51.022 48.0045 51.0216C47.4914 51.022 46.9781 50.8267 46.5865 50.4353L46.0144 49.8634C44.1386 47.9856 41.9279 46.5196 39.5226 45.5231C37.1166 44.5266 34.5162 43.9993 31.8615 43.9993H20.0984C13.7265 43.9993 7.61853 41.4672 3.11442 36.9591L1.65837 35.4991C1.89079 34.6331 2.14704 33.7769 2.42614 32.9311C4.37927 27.0105 7.45446 21.6029 11.4025 16.9549L11.4047 16.9571C11.4052 16.9563 11.4058 16.9557 11.4064 16.9549C15.9111 21.465 22.024 23.999 28.3984 23.999H31.8625C37.2185 23.999 42.4185 25.0429 47.2224 27.0391C47.474 27.1447 47.7394 27.1977 48.0045 27.1979C48.2695 27.1977 48.5349 27.1447 48.7865 27.0391C53.5904 25.0429 58.7904 23.999 64.1465 23.999H67.6105C73.9849 23.999 80.0978 21.465 84.6025 16.9549C84.6031 16.9557 84.6037 16.9563 84.6043 16.9571L84.6064 16.9549C88.5545 21.6029 91.6297 27.0105 93.5828 32.9311C93.8619 33.7769 94.1181 34.6331 94.3506 35.4991ZM77.1362 9.85619C73.3761 12.5322 68.8321 14.0002 64.1482 14.0002H64.1402C58.8001 14.0002 53.6001 14.8202 48.6202 16.4443C48.2161 16.5763 47.7802 16.5763 47.3761 16.4443C44.8841 15.6323 42.3402 15.0202 39.7482 14.6122C37.1562 14.2042 34.5202 14.0002 31.8482 14.0002C27.1681 14.0002 22.6362 12.5322 18.8722 9.85219C18.8722 9.84685 18.8735 9.84552 18.8761 9.84819C26.9521 3.66812 37.0482 0 48.0001 0C58.9562 0 69.0562 3.67202 77.1321 9.85219C77.1362 9.85219 77.1362 9.85619 77.1362 9.85619Z" fill="#35DBCE"/>
</svg>
