<svg width="280" height="280" viewBox="0 0 280 280" fill="none" xmlns="http://www.w3.org/2000/svg">
<g clip-path="url(#clip0_3215_74343)">
<path d="M71.1164 186.287C72.293 184.11 73.8908 182.417 75.9184 181.207C77.946 179.996 80.1863 179.391 82.6437 179.391C84.858 179.391 86.7944 179.822 88.4486 180.689C90.1028 181.555 91.4227 182.634 92.4169 183.927V179.844H98.2956L98.3173 207.944H92.4343V203.765C91.4444 205.093 90.0984 206.199 88.3921 207.083C86.6902 207.971 84.7451 208.415 82.5612 208.415C80.1385 208.415 77.9243 207.796 75.9097 206.556C73.8995 205.319 72.3017 203.582 71.1251 201.358C69.9485 199.133 69.3537 196.609 69.3537 193.783C69.3537 190.958 69.9398 188.459 71.1121 186.283L71.1164 186.287ZM91.2229 188.821C90.4197 187.393 89.369 186.309 88.0752 185.556C86.777 184.807 85.379 184.432 83.8811 184.437C82.3789 184.437 80.9808 184.807 79.687 185.538C78.3932 186.269 77.3425 187.34 76.5436 188.755C75.7404 190.166 75.3453 191.842 75.3453 193.779C75.3453 195.716 75.749 197.418 76.5523 198.877C77.3511 200.339 78.4149 201.449 79.7261 202.216C81.0416 202.982 82.431 203.36 83.8941 203.36C85.3573 203.36 86.7944 202.986 88.0882 202.237C89.382 201.489 90.4284 200.392 91.2316 198.946C92.0305 197.501 92.4299 195.808 92.4299 193.87C92.4299 191.933 92.0262 190.248 91.2229 188.821Z" fill="white"/>
<path d="M140.849 180.719C142.572 181.633 143.927 182.996 144.913 184.794C145.898 186.596 146.393 188.773 146.398 191.319L146.411 207.892H140.745L140.732 192.19C140.732 189.674 140.111 187.745 138.873 186.404C137.636 185.064 135.947 184.393 133.807 184.393C131.666 184.393 129.968 185.068 128.718 186.413C127.468 187.758 126.842 189.687 126.842 192.203L126.855 207.91H121.19L121.176 192.207C121.176 189.691 120.556 187.763 119.318 186.422C118.081 185.081 116.392 184.411 114.251 184.411C112.111 184.411 110.413 185.085 109.163 186.431C107.913 187.776 107.287 189.704 107.287 192.22L107.3 207.927H101.582L101.561 179.831H107.279V183.039C108.216 181.881 109.402 180.98 110.839 180.332C112.276 179.683 113.813 179.361 115.45 179.356C117.655 179.356 119.627 179.831 121.368 180.78C123.104 181.729 124.446 183.105 125.384 184.907C126.347 182.939 127.937 181.442 130.16 180.401C131.783 179.644 133.581 179.3 135.37 179.343C137.397 179.391 139.221 179.848 140.844 180.71L140.849 180.719Z" fill="white"/>
<path d="M159.414 180.645C161.094 179.766 162.992 179.322 165.11 179.322C167.529 179.322 169.739 179.918 171.74 181.115C173.742 182.312 175.313 183.993 176.455 186.156C177.597 188.32 178.175 190.801 178.175 193.605C178.175 196.413 177.606 198.92 176.468 201.132C175.326 203.347 173.755 205.071 171.762 206.303C169.765 207.54 167.555 208.158 165.136 208.162C163.018 208.162 161.138 207.736 159.488 206.874C157.838 206.012 156.496 204.941 155.454 203.657L155.467 220.991H149.719L149.684 179.787H155.433V183.888C156.41 182.604 157.734 181.52 159.414 180.641V180.645ZM171.141 188.62C170.346 187.219 169.304 186.156 168.015 185.429C166.721 184.702 165.332 184.341 163.856 184.341C162.375 184.341 161.038 184.715 159.748 185.46C158.454 186.204 157.412 187.288 156.627 188.707C155.836 190.127 155.446 191.803 155.446 193.727C155.446 195.655 155.841 197.336 156.635 198.772C157.425 200.209 158.472 201.297 159.761 202.037C161.055 202.781 162.427 203.147 163.869 203.147C165.314 203.147 166.734 202.764 168.028 202.002C169.322 201.24 170.364 200.135 171.15 198.681C171.936 197.227 172.331 195.538 172.331 193.613C172.331 191.685 171.936 190.022 171.141 188.62Z" fill="white"/>
<path d="M208.293 195.96L186.576 195.977C186.749 198.224 187.592 200.022 189.107 201.384C190.622 202.742 192.481 203.421 194.682 203.421C197.847 203.421 200.079 202.107 201.385 199.49H207.729C206.873 202.072 205.315 204.188 203.066 205.842C200.817 207.496 198.021 208.319 194.682 208.323C191.964 208.323 189.528 207.727 187.379 206.517C185.23 205.311 183.541 203.613 182.321 201.419C181.097 199.229 180.484 196.683 180.484 193.792C180.484 190.901 181.075 188.359 182.26 186.165C183.445 183.971 185.113 182.278 187.262 181.085C189.411 179.892 191.877 179.296 194.664 179.296C197.678 179.296 200.1 179.966 202.341 181.315C203.461 181.99 204.481 182.839 205.323 183.84C207.438 186.357 208.501 189.447 208.506 193.108C208.506 194.162 208.436 195.115 208.302 195.964H208.297L208.293 195.96ZM202.358 191.271C202.323 189.13 201.546 187.41 200.031 186.121C198.516 184.829 196.64 184.184 194.408 184.189C192.381 184.189 190.644 184.829 189.198 186.104C187.752 187.38 186.897 189.108 186.624 191.284L202.358 191.271Z" fill="white"/>
<path d="M68.963 185.473L60.6052 185.482L60.6269 207.953H55.0217L55 185.329V182.447C55 181.019 56.1549 179.866 57.5746 179.866H58.0913L68.963 179.857V185.477V185.473Z" fill="white"/>
<path d="M225 185.473L216.642 185.482L216.664 207.953H211.059L211.037 185.329V182.447C211.037 181.019 212.192 179.866 213.612 179.866H214.128L225 179.857V185.477V185.473Z" fill="white"/>
<path fill-rule="evenodd" clip-rule="evenodd" d="M125.844 82.4045L149.888 58.2568C150.04 58.1045 150.244 58.0174 150.461 58.0174L172.804 58C173.698 58 174.423 58.727 174.423 59.6238L174.441 82.0301C174.441 82.2434 174.354 82.4524 174.202 82.6048L150.157 106.752L150.14 86.8666C150.14 84.394 148.134 82.3871 145.668 82.3914L125.835 82.4089L125.844 82.4045Z" fill="#CCFF00"/>
<path fill-rule="evenodd" clip-rule="evenodd" d="M125.883 131.135L150.162 106.748L172.843 106.731C173.737 106.731 174.462 107.458 174.462 108.354L174.48 130.761C174.48 130.974 174.393 131.183 174.241 131.335L150.887 154.791C150.631 155.048 150.197 154.865 150.197 154.504L150.179 135.597C150.179 133.125 148.173 131.118 145.707 131.122L125.874 131.14L125.883 131.135Z" fill="white"/>
<path d="M101.799 106.552L125.844 82.4045L125.883 131.135L102.294 154.826C102.038 155.083 101.604 154.9 101.604 154.538L101.565 107.122C101.565 106.909 101.652 106.7 101.804 106.548L101.799 106.552Z" fill="white"/>
</g>
<defs>
<clipPath id="clip0_3215_74343">
<rect width="170" height="163" fill="white" transform="translate(55 58)"/>
</clipPath>
</defs>
</svg>
