<svg width="24" height="24" viewBox="0 0 24 24" fill="none" xmlns="http://www.w3.org/2000/svg">
<path d="M24 4.5567C23.117 4.94831 22.1681 5.21304 21.172 5.33203C22.1886 4.72267 22.9694 3.7577 23.337 2.60789C22.3856 3.17217 21.3319 3.58195 20.2103 3.80279C19.3121 2.84579 18.0324 2.24783 16.6162 2.24783C13.8968 2.24783 11.6922 4.45245 11.6922 7.17161C11.6922 7.55757 11.7357 7.93331 11.8197 8.29372C7.72747 8.0884 4.09932 6.12812 1.67078 3.14911C1.24694 3.87635 1.00415 4.72215 1.00415 5.62454C1.00415 7.33278 1.87344 8.8399 3.19461 9.72292C2.38748 9.69737 1.62826 9.47584 0.964365 9.10703C0.96402 9.12761 0.963945 9.14819 0.963945 9.16893C0.963945 11.5547 2.6612 13.5448 4.91374 13.9971C4.50054 14.1096 4.06554 14.1697 3.61649 14.1697C3.2992 14.1697 2.99075 14.1389 2.69009 14.0814C3.31669 16.0376 5.1351 17.4612 7.28974 17.501C5.60456 18.8216 3.48147 19.6088 1.17458 19.6088C0.777135 19.6087 0.38518 19.5854 0 19.54C2.17907 20.937 4.76723 21.7521 7.54786 21.7521C16.6047 21.7521 21.5573 14.2493 21.5573 7.74257C21.5573 7.5291 21.5525 7.31675 21.5431 7.1056C22.5051 6.41136 23.3399 5.54412 24 4.5567Z" fill="#1DA1F2"/>
</svg>
