<svg width="256" height="256" viewBox="0 0 256 256" fill="none" xmlns="http://www.w3.org/2000/svg">
<path d="M8 0H0V8H8V0Z" fill="#684B31"/>
<path d="M144 122.549V110H143.977C139.088 112.125 133.668 113.3 127.989 113.3C122.309 113.3 116.9 112.125 112 110V122.549C116.9 124.675 122.309 125.849 128 125.849C133.691 125.849 139.1 124.675 144 122.549Z" fill="#684B31"/>
<path d="M144 129.451V142H143.977C139.088 139.875 133.668 138.7 127.989 138.7C122.309 138.7 116.9 139.875 112 142V129.451C116.9 127.325 122.309 126.151 128 126.151C133.691 126.151 139.1 127.325 144 129.451Z" fill="#684B31"/>
<path fill-rule="evenodd" clip-rule="evenodd" d="M128 92.5C109.498 92.5 94.5 107.498 94.5 126C94.5 144.502 109.498 159.5 128 159.5C146.502 159.5 161.5 144.502 161.5 126C161.5 107.498 146.502 92.5 128 92.5ZM97.5 126C97.5 109.155 111.155 95.5 128 95.5C144.845 95.5 158.5 109.155 158.5 126C158.5 142.845 144.845 156.5 128 156.5C111.155 156.5 97.5 142.845 97.5 126Z" fill="#684B31"/>
<path d="M81.0607 172.94L60 151.879L38.9393 172.94L41.0607 175.061L60 156.122L78.9393 175.061L81.0607 172.94Z" fill="#684B31"/>
<path fill-rule="evenodd" clip-rule="evenodd" d="M197.805 98.1833V102.312H194.992V98.1364C193.313 97.987 191.805 97.6135 190.469 97.0156C188.703 96.2188 187.273 95.0625 186.18 93.5469C185.086 92.0312 184.359 90.2031 184 88.0625L188.641 87.1016C188.734 89.6484 189.469 91.6016 190.844 92.9609C191.91 94.003 193.293 94.6457 194.992 94.8889V83.0123L194.406 82.8828C193.703 82.7266 192.867 82.5 191.898 82.2031C190.93 81.9062 189.969 81.4688 189.016 80.8906C188.078 80.2969 187.297 79.4922 186.672 78.4766C186.047 77.4609 185.734 76.1562 185.734 74.5625C185.734 72.5625 186.242 70.9453 187.258 69.7109C188.289 68.4766 189.625 67.5703 191.266 66.9922C192.455 66.5769 193.698 66.3108 194.992 66.1938V62H197.805V66.1681C199.399 66.2799 200.805 66.6093 202.023 67.1562C203.57 67.8281 204.812 68.7969 205.75 70.0625C206.703 71.3125 207.344 72.8047 207.672 74.5391L203.102 75.5C202.992 74.2188 202.68 73.125 202.164 72.2188C201.648 71.2969 200.906 70.5859 199.938 70.0859C199.331 69.7678 198.62 69.5508 197.805 69.4351V79.684L199.281 80.0234C200.734 80.3516 202.109 80.8516 203.406 81.5234C204.703 82.1797 205.75 83.1016 206.547 84.2891C207.359 85.4766 207.766 87.0391 207.766 88.9766C207.766 90.9141 207.32 92.5781 206.43 93.9688C205.555 95.3438 204.289 96.3984 202.633 97.1328C201.255 97.7365 199.646 98.0866 197.805 98.1833ZM197.805 83.6336V94.9452C198.791 94.8487 199.658 94.6248 200.406 94.2734C201.453 93.7891 202.25 93.1016 202.797 92.2109C203.359 91.3203 203.641 90.2734 203.641 89.0703C203.641 87.4922 203.188 86.3047 202.281 85.5078C201.375 84.7109 200.094 84.1328 198.438 83.7734L197.805 83.6336ZM194.992 69.4129C194.312 69.4944 193.656 69.6407 193.023 69.8516C192.008 70.1953 191.188 70.7344 190.562 71.4688C189.938 72.2031 189.625 73.1562 189.625 74.3281C189.625 75.6094 190.07 76.6094 190.961 77.3281C191.834 78.0203 193.177 78.5893 194.992 79.0352V69.4129Z" fill="#684B31"/>
<path fill-rule="evenodd" clip-rule="evenodd" d="M249.5 40.5H6.5V203.5H30.5V215.5H89.5V203.5H98.5V215.5H157.5V203.5H166.5V215.5H225.5V203.5H249.5V40.5ZM86.5 212.5V203.5H33.5V212.5H86.5ZM89.5 200.5H98.5V164.5H157.5V200.5H166.5V128.5H225.5V200.5H246.5V83.5H229.467C228.682 101.305 213.999 115.5 196 115.5C178.001 115.5 163.318 101.305 162.533 83.5H9.5V200.5H30.5V188.5H89.5V200.5ZM246.5 80.5H229.467C228.682 62.6946 213.999 48.5 196 48.5C178.001 48.5 163.318 62.6946 162.533 80.5H9.5V43.5H246.5V80.5ZM169.5 152.5V143.5H222.5V152.5H169.5ZM169.5 140.5V131.5H222.5V140.5H169.5ZM169.5 155.5V164.5H222.5V155.5H169.5ZM169.5 176.5V167.5H222.5V176.5H169.5ZM154.5 188.5V179.5H101.5V188.5H154.5ZM154.5 176.5V167.5H101.5V176.5H154.5ZM169.5 188.5V179.5H222.5V188.5H169.5ZM154.5 200.5V191.5H101.5V200.5H154.5ZM169.5 200.5V191.5H222.5V200.5H169.5ZM33.5 200.5H86.5V191.5H33.5V200.5ZM101.5 212.5V203.5H154.5V212.5H101.5ZM169.5 203.5V212.5H222.5V203.5H169.5ZM196 51.5C179.155 51.5 165.5 65.1553 165.5 82C165.5 98.8447 179.155 112.5 196 112.5C212.845 112.5 226.5 98.8447 226.5 82C226.5 65.1553 212.845 51.5 196 51.5Z" fill="#684B31"/>
<path d="M248 0H256V8H248V0Z" fill="#684B31"/>
<path d="M8 248H0V256H8V248Z" fill="#684B31"/>
<path d="M248 248H256V256H248V248Z" fill="#684B31"/>
</svg>
